<?xml version="1.0" encoding="UTF-8"?><svg xmlns="http://www.w3.org/2000/svg" width="1024" height="1024" viewBox="0 0 1024 1024"><defs><style>.cls-1{fill:#fff;}.cls-1,.cls-2{stroke-width:0px;}.cls-2{fill:#ee3831;}</style></defs><g id="Layer_1"><rect class="cls-2" width="1024" height="1024"/></g><g id="Layer_2"><path class="cls-1" d="M817.2,775.82c-1.84-.48-3.62-1.16-5.3-2.04-.8-.38-1.66-.71-2.41-1.14-1.94-1.11-3.78-2.39-5.49-3.83-6.81-5.27-10.74-13.44-10.6-22.06v-463.01l.24-39.29v-34.32c0-3.53-2.86-6.39-6.39-6.39h-91.78c-4.4-.1-8.47,2.28-10.56,6.15l-58.17,117.91c-.65,1.31-.12,2.9,1.19,3.56.37.18.77.28,1.18.28h38.34c8.42-.05,15.32,6.68,15.48,15.1v399.96c.1,8.6-3.82,16.76-10.6,22.06-1.73,1.42-3.56,2.7-5.49,3.83l-2.41,1.14c-1.69.87-3.47,1.55-5.3,2.04-.54.15-1.06.36-1.56.62v18.65l.28.28h160.13l.28-.28v-18.65c-.48-.27-.99-.47-1.51-.62"/><path class="cls-1" d="M608.23,457.88l-77.01,156.2-44.02,89.13-26.98-46.81h0l-6.53-11.12-70.86-119.94-75.73-128.13c-.32-.44-.6-.89-.85-1.37-1.42,0-1.75,1.04-1.94,1.99-.07.96-.07,1.93,0,2.89v344.73c-.16,8.66,3.77,16.88,10.6,22.2,4.31,3.51,9.33,6.03,14.72,7.38v19.17h-159.09v-18.93c2.89-1.33,5.82-2.6,8.52-4.02,2.96-1.66,5.79-3.54,8.47-5.63,4.64-3.58,7.24-9.2,6.96-15.05V245.07c.39-7-2.43-13.8-7.67-18.46-3.95-3.57-8.66-6.19-13.77-7.67-1.18-.33-2.32-.43-3.88-.71.24-5.02.33-9.99.43-14.86h144.55c8.71-.02,16.64,5,20.35,12.87l89.32,152.74,8,13.49,88.18,150.85,65.98-134.14c1.3-2.54,3.91-4.15,6.77-4.17h41.37c1.52-.02,2.76,1.2,2.78,2.71,0,.42-.09.84-.27,1.22"/><path class="cls-1" d="M862.55,278.16c-1.88-1.78-4.02-3.27-6.34-4.4-2.61-1.37-5.31-2.54-8.09-3.5-2.98-1.04-5.35-1.94-7.19-2.75-1.67-.67-3.26-1.52-4.73-2.56-1.2-.9-2.18-2.06-2.84-3.41-.64-1.49-.97-3.11-.95-4.73-.04-2.5,1-4.89,2.84-6.58,2.22-1.91,5.08-2.89,8-2.75,4.03,0,7.87,1.73,10.56,4.73,3.04,3.28,5.02,7.41,5.68,11.83v.47h5.44l-1.04-23.43h-5.49l-1.37,3.46c-1.88-1.01-3.89-1.77-5.96-2.27-2.53-.71-5.14-1.07-7.76-1.09-5.91-.28-11.67,1.92-15.9,6.06-3.87,3.76-6.08,8.9-6.15,14.29-.09,3.01.55,5.99,1.85,8.71,1.16,2.37,2.77,4.49,4.73,6.25,1.92,1.62,4.05,2.96,6.34,3.98,2.2,1.05,4.46,1.97,6.77,2.75,2.46.8,4.73,1.66,6.86,2.56,1.82.71,3.54,1.67,5.11,2.84,1.26.94,2.28,2.15,2.98,3.55.68,1.48,1.02,3.1.99,4.73.21,3.11-.95,6.15-3.17,8.33-2.58,2.1-5.86,3.15-9.18,2.93-2.7.05-5.35-.66-7.67-2.04-2.24-1.33-4.22-3.05-5.87-5.06-1.6-2-2.93-4.19-3.98-6.53-.97-1.99-1.71-4.09-2.18-6.25v-.47h-5.4l.66,25.23h5.73l1.18-4.17c1.94,1.4,4.01,2.59,6.2,3.55,9.31,4.05,20.1,2.49,27.88-4.02,4.51-4.14,7-10.03,6.82-16.14.07-2.85-.44-5.69-1.51-8.33-.96-2.27-2.38-4.32-4.17-6.01"/><path class="cls-1" d="M916.13,303.81c-1.4.44-2.84.7-4.31.76-1.57.2-3.15.31-4.73.33-1.79.15-3.58-.11-5.25-.76-1.23-.61-2.23-1.61-2.84-2.84-.73-1.48-1.18-3.09-1.33-4.73,0-1.99-.28-4.4-.28-7.19v-37.87h18.08v-8.47h-18.22v-21.58h-12.78v21.58h-11.74v7.86h11.45v46.29c-.27,4.52.93,9,3.41,12.78,2.88,3.37,7.22,5.14,11.64,4.73,3.21.07,6.4-.37,9.47-1.33,2.46-.9,5.16-1.94,7.95-3.22h.33v-6.63l-.85.28Z"/><path class="cls-1" d="M883.31,764.27h3.28c3.71,0,6.9-1.35,6.9-4.88,0-2.48-1.81-4.97-6.9-4.97-1.1,0-2.2.08-3.28.25v9.6ZM883.31,779.98h-4.55v-28.38c2.66-.44,5.85-.67,8.04-.67s6.19.53,8.84,2.15c1.79,1.39,2.75,3.59,2.57,5.85.02,3.31-2.28,6.19-5.52,6.9v.25c2.48.42,4.21,2.69,4.76,6.9.24,2.4.83,4.76,1.77,6.99h-4.88c-1.09-2.27-1.75-4.73-1.94-7.24-.15-2.93-2.44-4.98-5.53-4.98s-3.73.01-3.73.01l.17,12.21Z"/><path class="cls-1" d="M889,737.05c-15.69,0-28.4,12.72-28.4,28.4s12.72,28.4,28.4,28.4,28.4-12.72,28.4-28.4-12.72-28.4-28.4-28.4ZM889,790.07c-13.59,0-24.61-11.02-24.61-24.61s11.02-24.61,24.61-24.61,24.61,11.02,24.61,24.61-11.02,24.61-24.61,24.61Z"/></g></svg>