<svg xmlns="http://www.w3.org/2000/svg" width="48" height="48" viewBox="0 0 48 48" fill="none">
  <circle cx="24" cy="24" r="22" fill="#E6E6E6"/>
  <path d="M24 12C17.373 12 12 17.373 12 24C12 30.627 17.373 36 24 36C30.627 36 36 30.627 36 24C36 17.373 30.627 12 24 12ZM24 16C25.104 16 26 16.896 26 18C26 19.104 25.104 20 24 20C22.896 20 22 19.104 22 18C22 16.896 22.896 16 24 16ZM28 30H20C19.448 30 19 29.552 19 29C19 28.448 19.448 28 20 28H22V23H21C20.448 23 20 22.552 20 22C20 21.448 20.448 21 21 21H25C25.552 21 26 21.448 26 22V28H28C28.552 28 29 28.448 29 29C29 29.552 28.552 30 28 30Z" fill="#9E9E9E"/>
</svg>
