<?xml version="1.0" encoding="UTF-8"?><svg id="Layer_1" xmlns="http://www.w3.org/2000/svg" viewBox="0 0 1079.88 784.33"><defs><style>.cls-1{fill:#121212;}</style></defs><path class="cls-1" d="M0,392.49V17.04C0,6.29,6.23,0,17.06,0h298.97c12.42,0,18.98,6.7,18.98,19.25,0,249.3.02,498.6.03,747.91,0,10.92-6.08,17.17-16.89,17.17-100.49,0-200.97,0-301.46-.01-10.39,0-16.63-6.4-16.63-16.87v-374.95h-.06Z"/><path class="cls-1" d="M409.09,335.44V97.45c0-11.29,3.94-15.14,15.39-15.15,78.83-.08,157.66-.14,236.49-.28,7.99-.01,15.98-.6,23.97-.68,10.78-.11,15.57,4.68,15.57,15.43.03,79.66.04,159.33.04,238.99,0,23.83-.33,47.67.1,71.5.15,8.37-2.92,13.93-9.79,18.13-25.69,15.7-51.22,31.67-77,47.22-60.55,36.51-121.2,72.85-181.85,109.21-3.12,1.87-6.39,3.63-9.81,4.83-6.79,2.4-12.94-1.98-13.07-9.21-.15-8.5-.04-17-.04-25.5v-216.5h0Z"/><path class="cls-1" d="M766.14,611.26c0-51.16.09-102.31-.1-153.47-.03-7.36,2.72-12.07,9-15.78,92.65-54.79,185.22-109.71,277.81-164.59,3.15-1.87,6.26-3.82,9.53-5.45,9.21-4.58,17.44.49,17.44,10.72.01,102.48-.02,204.96.06,307.44,0,8.26-5.09,12.75-11.19,16.41-26.24,15.74-52.6,31.3-78.92,46.9-67.11,39.79-134.22,79.57-201.33,119.35-2.29,1.36-4.59,2.72-7,3.84-7.7,3.58-14.66-.86-14.68-9.41-.12-46.66-.19-93.31-.27-139.97v-16h-.35Z"/></svg>