<svg id="Layer_1" data-name="Layer 1" xmlns="http://www.w3.org/2000/svg" xmlns:xlink="http://www.w3.org/1999/xlink" viewBox="0 0 216 216"><defs><style>.cls-1{fill:none;}.cls-2{fill:#ee3831;}.cls-3{clip-path:url(#clip-path);}.cls-4{fill:#fff;}</style><clipPath id="clip-path"><rect class="cls-1" x="-0.26" y="-0.26" width="216.34" height="216.34"/></clipPath></defs><title>M1st-Logo-Mark-Red</title><rect class="cls-2" x="-0.26" y="-0.26" width="216.34" height="216.34"/><g class="cls-3"><path class="cls-4" d="M172.42,163.65a5.41,5.41,0,0,1-1.12-.43c-.17-.08-.35-.15-.51-.24a7.77,7.77,0,0,1-1.16-.81,5.77,5.77,0,0,1-2.24-4.66c0-4.66,0-9.31,0-14,0-3.35,0-6.69,0-10q0-27.49,0-55,0-9.41,0-18.82l.05-8.3,0-7.25a1.35,1.35,0,0,0-1.35-1.35H146.7a2.47,2.47,0,0,0-2.23,1.3L132.18,69a.56.56,0,0,0,.5.81h8.1A3.25,3.25,0,0,1,144.05,73c0,19.74,0,51.91,0,60.5,0,3.35,0,6.69,0,10q0,7,0,14a5.83,5.83,0,0,1-2.24,4.66,9,9,0,0,1-1.16.81l-.51.24a5.63,5.63,0,0,1-1.12.43,1.73,1.73,0,0,0-.33.13v3.94l.06.06,0,0h.3l.15,0h32.88l.16,0h.29s0,0,.05,0l.06-.06v-3.94a1.44,1.44,0,0,0-.32-.13"/><path class="cls-4" d="M128.27,96.48l-16.27,33-9.3,18.83L97,138.42l0,0-1.38-2.35L80.65,110.73l-16-27.07a2.29,2.29,0,0,1-.18-.29c-.3,0-.37.22-.41.42a4.14,4.14,0,0,0,0,.61c0,5.64,0,11.27,0,16.93,0,7.45,0,14.91,0,22.34s0,14.62,0,21.92c0,3.88,0,7.76,0,11.64a5.81,5.81,0,0,0,2.24,4.69,8,8,0,0,0,3.11,1.56v4.05H35.8v-4c.61-.28,1.23-.55,1.8-.85a14.26,14.26,0,0,0,1.79-1.19,3.79,3.79,0,0,0,1.47-3.18v-15c0-3.33,0-6.69,0-10q0-27.5,0-55c0-8.92,0-17.86,0-26.79a4.86,4.86,0,0,0-1.62-3.9A7.4,7.4,0,0,0,36.33,46c-.25-.07-.49-.09-.82-.15.05-1.06.07-2.11.09-3.14H66.14a4.74,4.74,0,0,1,4.3,2.72L89.31,77.7,91,80.55l18.63,31.87,13.94-28.34A1.62,1.62,0,0,1,125,83.2h8.74a.58.58,0,0,1,.53.83"/><path class="cls-4" d="M182,58.51a5.36,5.36,0,0,0-1.34-.93,12.59,12.59,0,0,0-1.71-.74c-.63-.22-1.13-.41-1.52-.58a4.93,4.93,0,0,1-1-.54,2,2,0,0,1-.6-.72,2.46,2.46,0,0,1-.2-1,1.85,1.85,0,0,1,.6-1.39,2.41,2.41,0,0,1,1.69-.58,3,3,0,0,1,2.23,1,4.7,4.7,0,0,1,1.2,2.5l0,.1h1.15l-.22-4.95h-1.16l-.29.73a5.36,5.36,0,0,0-1.26-.48,6.24,6.24,0,0,0-1.64-.23,4.5,4.5,0,0,0-3.36,1.28A4.29,4.29,0,0,0,173.27,55a4,4,0,0,0,.39,1.84,4.3,4.3,0,0,0,1,1.32A5.61,5.61,0,0,0,176,59a12.65,12.65,0,0,0,1.43.58c.52.17,1,.35,1.45.54a4.56,4.56,0,0,1,1.08.6,2.13,2.13,0,0,1,.63.75,2.29,2.29,0,0,1,.21,1,2.25,2.25,0,0,1-.67,1.76,2.79,2.79,0,0,1-1.94.62,3.07,3.07,0,0,1-1.62-.43,4.72,4.72,0,0,1-1.24-1.07,6.36,6.36,0,0,1-.84-1.38,5.81,5.81,0,0,1-.46-1.32l0-.1h-1.14l.14,5.33h1.21l.25-.88a7.17,7.17,0,0,0,1.31.75,5.66,5.66,0,0,0,5.89-.85,4.45,4.45,0,0,0,1.44-3.41,4.39,4.39,0,0,0-.32-1.76,3.77,3.77,0,0,0-.88-1.27"/><path class="cls-4" d="M193.32,63.93a3.49,3.49,0,0,1-.91.16,8.82,8.82,0,0,1-1,.07A2.48,2.48,0,0,1,190.3,64a1.34,1.34,0,0,1-.6-.6,2.83,2.83,0,0,1-.28-1c0-.42-.06-.93-.06-1.52v-8h3.82V51.09h-3.85V46.53h-2.7v4.56h-2.48v1.66h2.42v9.78a4.44,4.44,0,0,0,.72,2.7,2.89,2.89,0,0,0,2.46,1,6.27,6.27,0,0,0,2-.28c.52-.19,1.09-.41,1.68-.68l.07,0V63.87Z"/><path class="cls-4" d="M186.38,161.25h.78c.88,0,1.64-.32,1.64-1.16,0-.59-.43-1.18-1.64-1.18a4.64,4.64,0,0,0-.78.06Zm0,3.73H185.3v-6.74a12.19,12.19,0,0,1,1.91-.16,3.54,3.54,0,0,1,2.1.51,1.6,1.6,0,0,1,.61,1.39,1.67,1.67,0,0,1-1.31,1.64v.06c.59.1,1,.64,1.13,1.64a5.77,5.77,0,0,0,.42,1.66H189a4.82,4.82,0,0,1-.46-1.72,1.26,1.26,0,0,0-1.45-1.18h-.75Zm1.13-8.62a5.13,5.13,0,1,0,4.86,5.13,5,5,0,0,0-4.86-5.13Zm0-.94a6.06,6.06,0,1,1-6,6,6,6,0,0,1,6-6Z"/></g></svg>